Coordinates
version=1
nRows=16
nColumns=40
inDegrees=yes

Units are S.I. units (second, meters, Newtons, ...)
If the header above contains a line with 'inDegrees', this indicates whether rotational values are in degrees (yes) or radians (no).

endheader
time	pelvis_tilt	pelvis_list	pelvis_rotation	pelvis_tx	pelvis_ty	pelvis_tz	hip_flexion_r	hip_adduction_r	hip_rotation_r	knee_angle_r	knee_angle_r_beta	ankle_angle_r	subtalar_angle_r	mtp_angle_r	hip_flexion_l	hip_adduction_l	hip_rotation_l	knee_angle_l	knee_angle_l_beta	ankle_angle_l	subtalar_angle_l	mtp_angle_l	lumbar_extension	lumbar_bending	lumbar_rotation	arm_flex_r	arm_add_r	arm_rot_r	elbow_flex_r	pro_sup_r	wrist_flex_r	wrist_dev_r	arm_flex_l	arm_add_l	arm_rot_l	elbow_flex_l	pro_sup_l	wrist_flex_l	wrist_dev_l
      3.53500000	    -31.76975109	     -2.87738700	     -0.36335434	     -0.47122204	      0.69266977	     -0.94813446	     85.79662903	    -13.64382121	      0.73941056	     90.77990405	      1.58440822	     35.15927928	      0.00000000	      0.00000000	     89.61999764	    -18.51559770	      8.93566734	     89.51750468	      1.56237519	     32.11291973	      0.00000000	      0.00000000	    -16.99011992	      2.11920076	      3.38835229	     10.12707674	    -54.86617393	     73.21370270	     93.04733214	     86.04122447	      0.00000000	      0.00000000	    -17.37605820	    -47.73848719	     37.19594842	     98.14922946	     87.52787724	      0.00000000	      0.00000000
      3.54000000	    -31.74740832	     -2.83600835	     -0.37634633	     -0.47125754	      0.69277692	     -0.94808446	     85.78744461	    -13.61651084	      0.81395730	     90.79073340	      1.58459723	     35.22307202	      0.00000000	      0.00000000	     89.56864546	    -18.51594663	      8.90818842	     89.50489930	      1.56215519	     32.16354369	      0.00000000	      0.00000000	    -16.99940811	      2.06452242	      3.49616289	     10.12743455	    -54.88612373	     73.29534388	     93.01671534	     86.20919644	      0.00000000	      0.00000000	    -17.00901307	    -47.87007673	     37.66697768	     98.13809093	     87.45732775	      0.00000000	      0.00000000
      3.54500000	    -31.86214378	     -2.91454179	     -0.35203150	     -0.47146277	      0.69272357	     -0.94808098	     85.88384448	    -13.60954803	      0.74102819	     90.74268854	      1.58375869	     35.06949597	      0.00000000	      0.00000000	     89.73914656	    -18.50522185	      8.97003693	     89.47934542	      1.56170919	     32.04840242	      0.00000000	      0.00000000	    -16.89334498	      2.15371411	      3.64658556	      9.58494255	    -54.94330244	     72.70216326	     93.09798876	     85.71968999	      0.00000000	      0.00000000	    -16.68422613	    -47.88489425	     38.01982261	     98.04063304	     87.61734032	      0.00000000	      0.00000000
      3.55000000	    -31.75231220	     -2.74545477	     -0.33218982	     -0.47138571	      0.69304404	     -0.94814459	     85.81287905	    -13.66785249	      0.90803729	     90.74653057	      1.58382574	     35.11250645	      0.00000000	      0.00000000	     89.50216213	    -18.45572900	      8.78374063	     89.42808870	      1.56081459	     32.11938823	      0.00000000	      0.00000000	    -17.04435000	      1.97603227	      3.35780901	     10.23307755	    -54.86952743	     73.31126089	     93.04706304	     86.48824599	      0.00000000	      0.00000000	    -17.25296232	    -47.81758786	     37.36313352	     98.18496620	     87.39348284	      0.00000000	      0.00000000
      3.55500000	    -31.71621713	     -2.68193920	     -0.32291967	     -0.47135865	      0.69323099	     -0.94819366	     85.78945399	    -13.69712789	      0.97227918	     90.73492654	      1.58362321	     35.09168148	      0.00000000	      0.00000000	     89.41020691	    -18.44100551	      8.68557222	     89.40509584	      1.56041329	     32.20132725	      0.00000000	      0.00000000	    -17.06876398	      1.89897472	      3.75100591	      9.32485422	    -54.95800359	     72.42449425	     93.08755099	     86.21893368	      0.00000000	      0.00000000	    -16.10196356	    -48.12220429	     38.74157132	     98.08439486	     87.41797252	      0.00000000	      0.00000000
      3.56000000	    -31.70893598	     -2.69223770	     -0.30040310	     -0.47146751	      0.69347096	     -0.94821532	     85.76092559	    -13.69469470	      0.97201790	     90.69553907	      1.58293577	     35.06057815	      0.00000000	      0.00000000	     89.39135763	    -18.38594331	      8.73122545	     89.35454672	      1.55953104	     32.07991776	      0.00000000	      0.00000000	    -17.11421275	      1.92006375	      3.72247369	      9.37616307	    -54.96186787	     72.42796557	     93.12999093	     86.12863011	      0.00000000	      0.00000000	    -16.13795945	    -48.06317596	     38.65964301	     98.02290513	     87.47131418	      0.00000000	      0.00000000
      3.56500000	    -31.78504876	     -2.72431053	     -0.29614798	     -0.47160065	      0.69333532	     -0.94816733	     85.83693803	    -13.68311440	      0.94580386	     90.68589445	      1.58276744	     35.06985251	      0.00000000	      0.00000000	     89.49106158	    -18.38161650	      8.77168376	     89.35378628	      1.55951777	     32.15501776	      0.00000000	      0.00000000	    -17.05604571	      1.96797195	      3.05029764	     11.16773623	    -54.81274744	     74.35836711	     93.04167292	     86.37433972	      0.00000000	      0.00000000	    -17.79726328	    -47.69344336	     36.80693877	     98.22470355	     87.40658592	      0.00000000	      0.00000000
      3.57000000	    -31.88633747	     -2.90348408	     -0.30196988	     -0.47179739	      0.69322012	     -0.94803658	     85.86498587	    -13.61004349	      0.77004448	     90.63564720	      1.58189046	     35.11260913	      0.00000000	      0.00000000	     89.69634844	    -18.41281207	      8.97826615	     89.32843799	      1.55907536	     32.09107055	      0.00000000	      0.00000000	    -16.96540942	      2.14895713	      3.26271051	     10.67807911	    -54.90016412	     73.81937130	     93.14221873	     86.24638871	      0.00000000	      0.00000000	    -17.48964036	    -47.75826173	     37.18137017	     98.21824062	     87.45419043	      0.00000000	      0.00000000
      3.57500000	    -31.97107901	     -2.90418474	     -0.32346319	     -0.47196319	      0.69314943	     -0.94795308	     85.94064645	    -13.58413833	      0.77172243	     90.58036670	      1.58092564	     35.09163639	      0.00000000	      0.00000000	     89.81790444	    -18.42276288	      8.98741596	     89.37193371	      1.55983450	     32.05436937	      0.00000000	      0.00000000	    -16.87079602	      2.13388359	      3.38069229	     10.30479314	    -54.91035390	     73.41244214	     93.16434983	     86.06536658	      0.00000000	      0.00000000	    -17.33460637	    -47.86433261	     37.37412050	     98.20807001	     87.51331483	      0.00000000	      0.00000000
      3.58000000	    -31.96526592	     -2.96725648	     -0.30923301	     -0.47205796	      0.69335273	     -0.94791374	     85.91914798	    -13.55511345	      0.71669632	     90.58006850	      1.58092043	     35.03829303	      0.00000000	      0.00000000	     89.79345556	    -18.40045821	      9.07781450	     89.27651754	      1.55816918	     32.03726509	      0.00000000	      0.00000000	    -16.89993408	      2.20739056	      3.59571773	      9.98099987	    -55.00447829	     73.15216784	     93.20811109	     86.03287231	      0.00000000	      0.00000000	    -16.79031578	    -47.91802484	     37.94094966	     98.13876759	     87.51092890	      0.00000000	      0.00000000
      3.58500000	    -31.97096437	     -2.95834372	     -0.29105236	     -0.47216648	      0.69342066	     -0.94788700	     85.92602567	    -13.55601878	      0.73908855	     90.56457112	      1.58064995	     35.05459283	      0.00000000	      0.00000000	     89.79354619	    -18.37396039	      9.07678134	     89.25246168	      1.55774932	     32.04557840	      0.00000000	      0.00000000	    -16.92303824	      2.20767743	      3.09198403	     11.28491625	    -54.86511171	     74.52197075	     93.14530770	     86.32247012	      0.00000000	      0.00000000	    -17.91744327	    -47.67812331	     36.70167713	     98.28978713	     87.42153108	      0.00000000	      0.00000000
      3.59000000	    -31.97094269	     -2.97026770	     -0.30736221	     -0.47218153	      0.69353023	     -0.94780752	     85.91586698	    -13.52525936	      0.73098503	     90.55692685	      1.58051653	     35.02270690	      0.00000000	      0.00000000	     89.79145690	    -18.40368584	      9.08045607	     89.23456008	      1.55743688	     31.99576405	      0.00000000	      0.00000000	    -16.95042590	      2.20675319	      3.28779466	     10.76807558	    -54.90375695	     74.00063389	     93.17582426	     85.88312198	      0.00000000	      0.00000000	    -17.58260366	    -47.73741669	     37.06716310	     98.23915429	     87.54340115	      0.00000000	      0.00000000
      3.59500000	    -32.00230221	     -3.04248742	     -0.30214962	     -0.47227037	      0.69359115	     -0.94774546	     85.90308874	    -13.49513003	      0.65642095	     90.50634803	      1.57963377	     35.06482422	      0.00000000	      0.00000000	     89.84705096	    -18.39085596	      9.18035060	     89.20294609	      1.55688511	     31.98969094	      0.00000000	      0.00000000	    -16.92927729	      2.28270535	      3.23419243	     11.00602116	    -54.90243553	     74.22076906	     93.18575829	     86.37547371	      0.00000000	      0.00000000	    -17.76467265	    -47.70247376	     36.88018283	     98.27962726	     87.39925021	      0.00000000	      0.00000000
      3.60000000	    -32.04643961	     -3.00813499	     -0.31230389	     -0.47246252	      0.69358810	     -0.94772124	     85.97274346	    -13.44814303	      0.75547809	     90.49470083	      1.57943049	     35.02825626	      0.00000000	      0.00000000	     89.86580191	    -18.38075916	      9.14344790	     89.15616395	      1.55606861	     32.02684122	      0.00000000	      0.00000000	    -16.91628406	      2.22189210	      3.66936317	      9.68960036	    -55.03071763	     72.86653427	     93.28348236	     85.05685836	      0.00000000	      0.00000000	    -16.92896719	    -47.94117262	     37.76571372	     98.31799314	     87.71567054	      0.00000000	      0.00000000
      3.60500000	    -32.07557529	     -3.06366780	     -0.30504405	     -0.47256275	      0.69368691	     -0.94770982	     85.95956060	    -13.45372896	      0.66514825	     90.43824720	      1.57844518	     35.06408431	      0.00000000	      0.00000000	     89.93065663	    -18.34961415	      9.23999370	     89.14558231	      1.55588392	     31.95606215	      0.00000000	      0.00000000	    -16.89671581	      2.30716928	      3.48628575	     10.35889015	    -54.99224846	     73.52505457	     93.25922548	     86.43985506	      0.00000000	      0.00000000	    -17.28328880	    -47.82510363	     37.42694982	     98.25095424	     87.40194379	      0.00000000	      0.00000000
      3.61000000	    -32.01164898	     -2.98300582	     -0.30940447	     -0.47250028	      0.69387087	     -0.94769513	     85.91119612	    -13.45054995	      0.75702047	     90.44625132	      1.57858488	     35.11705314	      0.00000000	      0.00000000	     89.79568902	    -18.35759363	      9.12929364	     89.12180873	      1.55546900	     32.07080870	      0.00000000	      0.00000000	    -17.00138627	      2.19782235	      3.68763002	      9.67005955	    -55.03221735	     72.81626717	     93.29451784	     85.39906295	      0.00000000	      0.00000000	    -16.91931533	    -47.94203953	     37.80494053	     98.30139565	     87.65522538	      0.00000000	      0.00000000
